<?xml version="1.0" encoding="UTF-8"?>
<svg id="Layer_2" data-name="Layer 2" xmlns="http://www.w3.org/2000/svg" viewBox="0 0 250 250">
  <defs>
    <style>
      .cls-1 {
        fill: #fffc5c;
      }
    </style>
  </defs>
  <g>
    <circle class="cls-1" cx="125" cy="125" r="26"/>
    <path d="M125,99.5c14.06,0,25.5,11.44,25.5,25.5s-11.44,25.5-25.5,25.5-25.5-11.44-25.5-25.5,11.44-25.5,25.5-25.5m0-1c-14.64,0-26.5,11.86-26.5,26.5s11.86,26.5,26.5,26.5,26.5-11.86,26.5-26.5-11.86-26.5-26.5-26.5h0Z"/>
  </g>
  <g>
    <path class="cls-1" d="M93.99,163.85c-.47,0-.93-.17-1.28-.47-.41-.34-.66-.82-.7-1.36s.12-1.05,.46-1.46l9.01-10.71c.38-.45,.94-.71,1.53-.71,.47,0,.93,.17,1.28,.47,.41,.34,.66,.82,.7,1.36s-.12,1.05-.46,1.46l-9.01,10.71c-.38,.45-.94,.71-1.53,.71h0Z"/>
    <path d="M103.01,149.65c.35,0,.69,.12,.96,.35,.63,.53,.71,1.48,.18,2.11l-9.01,10.71c-.28,.34-.7,.53-1.15,.53-.35,0-.69-.12-.96-.35-.63-.53-.71-1.48-.18-2.11l9.01-10.71c.28-.34,.7-.53,1.15-.53m0-1c-.71,0-1.42,.3-1.92,.89l-9.01,10.71c-.89,1.05-.75,2.64,.3,3.52,.47,.39,1.04,.58,1.61,.58,.71,0,1.42-.3,1.92-.89l9.01-10.71c.89-1.05,.75-2.64-.3-3.52-.47-.39-1.04-.58-1.61-.58h0Z"/>
  </g>
  <g>
    <path class="cls-1" d="M124.68,175.16c-1.1,0-1.99-.91-1.99-2.01l.09-14c0-1.09,.9-1.99,2-1.99,.54,0,1.04,.21,1.42,.6s.58,.88,.58,1.42l-.09,14c0,1.1-.9,1.99-2,1.99h-.01Z"/>
    <path d="M124.78,156.66v1c.84,0,1.51,.68,1.5,1.51l-.09,14c0,.82-.68,1.49-1.51,1.49-.4,0-.77-.16-1.06-.45-.28-.29-.44-.66-.43-1.06l.09-14c0-.82,.68-1.49,1.5-1.49v-1m0,0c-1.37,0-2.49,1.11-2.5,2.48l-.09,14c0,1.37,1.11,2.51,2.48,2.52,0,0,.01,0,.02,0,1.37,0,2.49-1.11,2.5-2.48l.09-14c0-1.37-1.11-2.51-2.48-2.52,0,0-.01,0-.02,0h0Z"/>
  </g>
  <g>
    <path class="cls-1" d="M155.54,164.24c-.61,0-1.17-.27-1.55-.73l-8.88-10.83c-.34-.41-.49-.93-.44-1.46,.05-.53,.31-1.01,.72-1.35,.36-.29,.8-.45,1.27-.45,.61,0,1.17,.27,1.55,.73l8.88,10.83c.7,.85,.57,2.12-.28,2.81-.35,.29-.8,.45-1.26,.45Z"/>
    <path d="M146.66,149.92c.45,0,.88,.2,1.16,.55l8.88,10.83c.25,.31,.37,.7,.33,1.1s-.23,.76-.54,1.01c-.27,.22-.6,.34-.95,.34-.45,0-.88-.2-1.16-.55l-8.88-10.83c-.25-.31-.37-.7-.33-1.1,.04-.4,.23-.76,.54-1.01,.27-.22,.6-.34,.95-.34m0-1c-.56,0-1.12,.18-1.58,.56-1.06,.87-1.22,2.46-.35,3.52l8.88,10.83c.49,.6,1.21,.91,1.94,.91,.56,0,1.12-.18,1.58-.56,1.06-.87,1.22-2.46,.35-3.52l-8.88-10.83c-.49-.6-1.21-.91-1.94-.91h0Z"/>
  </g>
  <g>
    <path class="cls-1" d="M172.29,136.14c-.12,0-.25-.01-.38-.04l-13.75-2.66c-.52-.1-.97-.4-1.27-.84-.3-.44-.41-.98-.31-1.5,.18-.94,1.01-1.62,1.96-1.62,.12,0,.25,.01,.38,.04l13.75,2.66c.52,.1,.97,.4,1.28,.84,.3,.44,.41,.98,.31,1.5-.18,.94-1.01,1.62-1.96,1.62h0Z"/>
    <path d="M158.54,129.99c.09,0,.19,0,.28,.03l13.75,2.66c.39,.08,.73,.3,.96,.63,.23,.33,.31,.73,.23,1.12-.14,.7-.76,1.22-1.47,1.22-.09,0-.19,0-.28-.03l-13.75-2.66c-.81-.16-1.35-.95-1.19-1.76,.14-.7,.76-1.22,1.47-1.22m0-1c-1.17,0-2.23,.83-2.46,2.03h0c-.26,1.35,.63,2.67,1.98,2.93l13.75,2.66c.16,.03,.32,.05,.47,.05,1.17,0,2.23-.83,2.46-2.03,.26-1.35-.63-2.67-1.98-2.93l-13.75-2.66c-.16-.03-.32-.05-.47-.05h0Z"/>
  </g>
  <g>
    <path class="cls-1" d="M154.96,110.56c-.74,0-1.41-.4-1.76-1.04-.26-.47-.31-1.01-.16-1.52,.15-.52,.49-.94,.95-1.19l12.27-6.74c.29-.16,.62-.25,.96-.25,.74,0,1.41,.4,1.76,1.04,.26,.47,.31,1.01,.17,1.52-.15,.52-.49,.94-.96,1.19l-12.27,6.74c-.29,.16-.62,.25-.96,.25h0Z"/>
    <path d="M167.21,100.32c.55,0,1.06,.3,1.32,.78,.19,.35,.23,.75,.12,1.14-.11,.39-.37,.7-.72,.9l-12.27,6.74c-.22,.12-.46,.18-.71,.18-.55,0-1.06-.3-1.32-.78-.4-.73-.13-1.64,.59-2.04l12.27-6.74c.22-.12,.46-.18,.71-.18m0-1c-.41,0-.82,.1-1.2,.31l-12.27,6.74c-1.21,.66-1.65,2.19-.99,3.39h0c.45,.83,1.31,1.3,2.2,1.3,.41,0,.82-.1,1.2-.31l12.27-6.74c1.21-.66,1.65-2.19,.99-3.39-.45-.83-1.31-1.3-2.2-1.3h0Z"/>
  </g>
  <g>
    <path class="cls-1" d="M137.53,95.22c-.25,0-.49-.05-.73-.14-.5-.19-.88-.57-1.1-1.06-.21-.49-.22-1.03-.03-1.53l5.14-13.02c.3-.76,1.05-1.27,1.87-1.27,.25,0,.49,.05,.73,.14,1.03,.4,1.53,1.57,1.13,2.59l-5.14,13.02c-.3,.76-1.05,1.27-1.87,1.27h0Z"/>
    <path d="M142.68,78.7c.19,0,.37,.03,.54,.1,.37,.15,.66,.43,.82,.8s.17,.78,.02,1.15l-5.14,13.02c-.22,.57-.79,.95-1.4,.95-.19,0-.37-.03-.54-.1-.77-.3-1.15-1.18-.85-1.95l5.14-13.02c.22-.57,.79-.95,1.4-.95h0m0-1c-1,0-1.95,.6-2.33,1.58l-5.14,13.02c-.5,1.28,.13,2.74,1.41,3.24,.3,.12,.61,.17,.91,.17,1,0,1.95-.6,2.33-1.58l5.14-13.02c.5-1.28-.13-2.74-1.41-3.24h0c-.3-.12-.61-.17-.91-.17h0Z"/>
  </g>
  <g>
    <path class="cls-1" d="M114.34,94.54c-.87,0-1.64-.55-1.91-1.38l-4.37-13.3c-.34-1.05,.23-2.18,1.28-2.52,.2-.07,.41-.1,.62-.1,.87,0,1.63,.55,1.91,1.38l4.37,13.3c.17,.5,.12,1.05-.12,1.52-.24,.48-.65,.83-1.16,1-.2,.07-.41,.1-.62,.1h0Z"/>
    <path d="M109.96,77.74c.65,0,1.23,.41,1.43,1.03l4.37,13.3c.26,.79-.17,1.64-.96,1.89-.15,.05-.31,.07-.46,.07-.65,0-1.23-.41-1.43-1.03l-4.37-13.3c-.12-.38-.09-.78,.09-1.14,.18-.36,.49-.63,.87-.75,.15-.05,.31-.07,.46-.07m0-1c-.26,0-.52,.04-.77,.12h0c-1.31,.43-2.02,1.85-1.59,3.16l4.37,13.3c.34,1.05,1.33,1.72,2.38,1.72,.26,0,.52-.04,.77-.12,1.31-.43,2.02-1.85,1.59-3.16l-4.37-13.3c-.34-1.05-1.33-1.72-2.38-1.72h0Z"/>
  </g>
  <g>
    <path class="cls-1" d="M96.05,108.84c-.38,0-.74-.1-1.06-.3l-11.86-7.44c-.45-.28-.76-.73-.88-1.25-.12-.52-.03-1.06,.25-1.51,.37-.59,1-.94,1.7-.94,.38,0,.74,.11,1.06,.3l11.86,7.44c.93,.59,1.22,1.82,.63,2.76-.37,.59-1,.94-1.7,.94h0Z"/>
    <path d="M84.21,97.91c.28,0,.55,.08,.79,.23l11.86,7.44c.7,.44,.91,1.37,.47,2.07-.28,.44-.75,.7-1.28,.7-.28,0-.55-.08-.79-.23l-11.86-7.44c-.34-.21-.57-.54-.66-.94-.09-.39-.02-.79,.19-1.13,.28-.44,.75-.7,1.28-.7m0-1c-.83,0-1.65,.41-2.12,1.17-.73,1.16-.38,2.72,.79,3.45l11.86,7.44c.41,.26,.87,.38,1.32,.38,.83,0,1.65-.41,2.12-1.17,.73-1.16,.38-2.72-.79-3.45l-11.86-7.44c-.41-.26-.87-.38-1.32-.38h0Z"/>
  </g>
  <g>
    <path class="cls-1" d="M77.26,133.38c-1,0-1.85-.75-1.98-1.74-.15-1.09,.63-2.1,1.72-2.25l13.88-1.85c.09-.01,.18-.02,.26-.02,1,0,1.85,.75,1.98,1.73,.15,1.09-.62,2.1-1.72,2.25l-13.88,1.85c-.09,.01-.18,.02-.26,.02h0Z"/>
    <path d="M91.14,128.02c.75,0,1.39,.56,1.49,1.3,.11,.82-.47,1.58-1.29,1.69l-13.88,1.85c-.07,0-.13,.01-.2,.01-.75,0-1.39-.56-1.49-1.3-.11-.82,.47-1.58,1.29-1.69l13.88-1.85c.07,0,.13-.01,.2-.01m0-1c-.11,0-.22,0-.33,.02l-13.88,1.85c-1.36,.18-2.33,1.45-2.15,2.81h0c.17,1.25,1.25,2.17,2.48,2.17,.11,0,.22,0,.33-.02l13.88-1.85c1.36-.18,2.33-1.45,2.15-2.81-.17-1.25-1.25-2.17-2.48-2.17h0Z"/>
  </g>
</svg>