<?xml version="1.0" encoding="UTF-8"?>
<svg xmlns="http://www.w3.org/2000/svg" viewBox="0 0 250 250">
  <defs>
    <style>
      .cls-1 {
        fill: #fff;
      }

      .cls-2 {
        fill: #fffc5c;
      }
    </style>
  </defs>
  <g id="Layer_2" data-name="Layer 2">
    <g>
      <path class="cls-2" d="M108.55,142.52c-5,0-9.88-1.44-14.1-4.17-12.04-7.79-15.5-23.91-7.71-35.95,4.81-7.44,12.98-11.88,21.86-11.88,5,0,9.88,1.44,14.1,4.17,12.04,7.79,15.5,23.91,7.71,35.95-4.81,7.44-12.98,11.88-21.86,11.88Z"/>
      <path d="M108.6,90.01v1c4.9,0,9.68,1.41,13.82,4.09,11.81,7.64,15.2,23.45,7.56,35.26-4.72,7.3-12.73,11.65-21.44,11.65-4.91,0-9.69-1.41-13.82-4.09-5.72-3.7-9.66-9.4-11.08-16.06-1.43-6.66-.18-13.48,3.52-19.2,4.72-7.3,12.73-11.65,21.44-11.65v-1m0,0c-8.69,0-17.21,4.27-22.28,12.11-7.95,12.29-4.43,28.69,7.86,36.64,4.45,2.88,9.44,4.25,14.37,4.25,8.69,0,17.21-4.27,22.28-12.11,7.95-12.29,4.43-28.69-7.86-36.64-4.45-2.88-9.44-4.25-14.37-4.25h0Z"/>
    </g>
    <g>
      <path class="cls-2" d="M132.24,93.87c-.52,0-1.01-.2-1.38-.55-.8-.76-.82-2.03-.06-2.83l9.7-10.1c.38-.39,.89-.61,1.44-.61,.52,0,1.01,.2,1.38,.55,.8,.76,.82,2.03,.06,2.83l-9.7,10.1c-.38,.39-.89,.61-1.44,.61h0Z"/>
      <path d="M141.94,80.27c.39,0,.76,.15,1.04,.41,.6,.57,.62,1.52,.04,2.12l-9.7,10.1c-.28,.3-.67,.46-1.08,.46-.39,0-.76-.15-1.04-.41-.29-.28-.45-.65-.46-1.05,0-.4,.14-.78,.41-1.07l9.7-10.1c.28-.3,.67-.46,1.08-.46m0-1c-.66,0-1.32,.26-1.8,.77l-9.7,10.1c-.95,.99-.92,2.58,.07,3.53,.48,.46,1.11,.69,1.73,.69,.66,0,1.32-.26,1.8-.77l9.7-10.1c.95-.99,.92-2.58-.07-3.53-.48-.46-1.11-.69-1.73-.69h0Z"/>
    </g>
    <g>
      <path class="cls-2" d="M110.89,84.43c-.53-.04-1.02-.28-1.37-.69-.35-.41-.52-.92-.48-1.45l1.01-13.96c.08-1.04,.95-1.86,1.99-1.86,.05,0,.1,0,.14,0,1.1,.08,1.93,1.04,1.85,2.14l-1.01,13.96c-.07,1.04-.95,1.86-1.99,1.86,0,0-.1,0-.14,0Z"/>
      <path d="M112.04,66.97h0s.07,0,.11,0c.82,.06,1.45,.78,1.39,1.6l-1.01,13.96c-.06,.78-.71,1.39-1.5,1.39-.04,0-.07,0-.11,0-.82-.06-1.45-.78-1.39-1.6l1.01-13.96c.06-.78,.71-1.39,1.5-1.39m0-1c-1.3,0-2.4,1.01-2.49,2.32l-1.01,13.96c-.1,1.37,.94,2.57,2.31,2.67,.06,0,.12,0,.18,0,1.3,0,2.4-1.01,2.49-2.32l1.01-13.96c.1-1.37-.94-2.57-2.31-2.67h0c-.06,0-.12,0-.18,0h0Z"/>
    </g>
    <g>
      <path class="cls-2" d="M88.7,90.73c-.65,0-1.26-.31-1.63-.83l-8.15-11.39c-.64-.9-.43-2.15,.46-2.79,.34-.24,.74-.37,1.16-.37,.65,0,1.26,.31,1.63,.83l8.15,11.39c.31,.43,.43,.96,.34,1.49-.09,.53-.37,.99-.81,1.3-.34,.24-.74,.37-1.16,.37h0Z"/>
      <path d="M80.55,75.85c.49,0,.95,.23,1.23,.62l8.15,11.39c.48,.67,.33,1.61-.35,2.09-.25,.18-.55,.28-.87,.28-.49,0-.95-.23-1.23-.62l-8.15-11.39c-.48-.67-.33-1.61,.35-2.09,.25-.18,.55-.28,.87-.28m0-1c-.5,0-1.01,.15-1.45,.46-1.12,.8-1.38,2.37-.58,3.49l8.15,11.39c.49,.68,1.26,1.04,2.04,1.04,.5,0,1.01-.15,1.45-.46,1.12-.8,1.38-2.37,.58-3.49l-8.15-11.39c-.49-.68-1.26-1.04-2.04-1.04h0Z"/>
    </g>
    <g>
      <path class="cls-2" d="M75.53,109.84c-.17,0-.34-.02-.5-.06l-13.54-3.55c-1.07-.28-1.71-1.38-1.43-2.44,.23-.88,1.03-1.49,1.94-1.49,.17,0,.34,.02,.5,.07l13.54,3.55c.51,.14,.95,.46,1.22,.93s.34,1,.21,1.52c-.23,.88-1.03,1.49-1.94,1.49h0Z"/>
      <path d="M61.99,102.79c.13,0,.25,.02,.38,.05l13.54,3.55c.38,.1,.71,.35,.91,.7,.2,.35,.26,.75,.16,1.14-.17,.66-.77,1.12-1.45,1.12-.13,0-.25-.02-.38-.05l-13.54-3.55c-.8-.21-1.28-1.03-1.07-1.83,.17-.66,.77-1.12,1.45-1.12m0-1c-1.11,0-2.13,.75-2.42,1.87-.35,1.33,.45,2.7,1.78,3.05l13.54,3.55c.21,.06,.42,.08,.63,.08,1.11,0,2.13-.75,2.42-1.87h0c.35-1.33-.45-2.7-1.78-3.05l-13.54-3.55c-.21-.06-.42-.08-.63-.08h0Z"/>
    </g>
    <g>
      <path class="cls-2" d="M64.93,138.87c-.78,0-1.49-.45-1.82-1.15-.22-.48-.25-1.02-.06-1.53,.18-.5,.55-.91,1.03-1.13l12.69-5.92c.27-.12,.55-.19,.84-.19,.78,0,1.49,.45,1.82,1.15,.47,1,.03,2.19-.97,2.66l-12.69,5.92c-.27,.12-.55,.19-.84,.19h0Z"/>
      <path d="M77.61,129.45c.59,0,1.12,.34,1.37,.86,.35,.75,.02,1.64-.73,1.99l-12.69,5.92c-.2,.09-.41,.14-.63,.14-.59,0-1.12-.34-1.37-.86-.35-.75-.02-1.64,.73-1.99l12.69-5.92c.2-.09,.41-.14,.63-.14m0-1c-.35,0-.71,.07-1.05,.23l-12.69,5.92c-1.25,.58-1.79,2.08-1.21,3.32,.42,.91,1.33,1.44,2.27,1.44,.35,0,.71-.07,1.05-.23l12.69-5.92c1.25-.58,1.79-2.08,1.21-3.32-.42-.91-1.33-1.44-2.27-1.44h0Z"/>
    </g>
  </g>
  <g id="Layer_1" data-name="Layer 1">
    <g>
      <path class="cls-1" d="M84.5,164.5c-9.1,0-16.5-7.4-16.5-16.5s7.4-16.5,16.5-16.5h4.5v-1.5c0-13.51,10.99-24.5,24.5-24.5,1.11,0,2.25,.08,3.39,.24l.47,.07,.09-.47c2.21-11.5,12.33-19.84,24.05-19.84,13.51,0,24.5,10.99,24.5,24.5v2.92l.24,.15c7.36,4.49,11.76,12.32,11.76,20.93v2c0,.35-.01,.69-.03,1.04v.19s.12,.15,.12,.15c2.52,2.98,3.91,6.75,3.91,10.62,0,9.1-7.4,16.5-16.5,16.5H84.5Z"/>
      <path d="M141.5,86c13.23,0,24,10.77,24,24v3.2l.48,.29c7.21,4.4,11.52,12.07,11.52,20.5v2c0,.34-.01,.68-.03,1.02l-.02,.39,.25,.3c2.44,2.89,3.79,6.55,3.79,10.3,0,8.82-7.18,16-16,16H84.5c-8.82,0-16-7.18-16-16s7.18-16,16-16h5v-2c0-13.23,10.77-24,24-24,1.08,0,2.2,.08,3.32,.23l.94,.13,.18-.93c2.17-11.26,12.08-19.43,23.56-19.43m0-1h0c-12.18,0-22.32,8.71-24.54,20.24-1.13-.16-2.28-.24-3.46-.24h0c-13.81,0-25,11.19-25,25v1h-4c-9.35,0-17,7.65-17,17s7.65,17,17,17h81c9.35,0,17-7.65,17-17,0-4.16-1.52-7.98-4.03-10.94,.01-.35,.03-.7,.03-1.06v-2c0-9.05-4.8-16.97-12-21.36v-2.64c0-13.81-11.19-25-25-25h0Z"/>
    </g>
  </g>
</svg>