<?xml version="1.0" encoding="UTF-8"?>
<svg id="Layer_1" data-name="Layer 1" xmlns="http://www.w3.org/2000/svg" viewBox="0 0 250 250">
  <defs>
    <style>
      .cls-1 {
        fill: #b3b3b3;
      }
    </style>
  </defs>
  <g>
    <path class="cls-1" d="M105.64,172.44c-.3,0-.58-.07-.85-.19l-17.15-8.17c-.48-.23-.84-.63-1.02-1.14-.18-.5-.15-1.05,.08-1.53,.33-.69,1.04-1.14,1.81-1.14,.3,0,.58,.07,.85,.19l17.15,8.17c1,.47,1.42,1.67,.95,2.67-.33,.69-1.04,1.14-1.81,1.14Z"/>
    <path d="M88.5,160.77h0c.22,0,.44,.05,.64,.14l17.15,8.17c.75,.36,1.06,1.25,.71,2-.25,.52-.78,.85-1.36,.85-.22,0-.44-.05-.64-.14l-17.15-8.17c-.75-.36-1.06-1.25-.71-2,.25-.52,.78-.85,1.36-.85m0-1c-.94,0-1.84,.53-2.26,1.42-.59,1.24-.06,2.74,1.18,3.33l17.15,8.17c.34,.16,.71,.24,1.07,.24,.94,0,1.84-.53,2.26-1.42h0c.59-1.24,.06-2.74-1.18-3.33l-17.15-8.17c-.34-.16-.71-.24-1.07-.24h0Z"/>
  </g>
  <g>
    <path class="cls-1" d="M147.4,89.73c-.3,0-.58-.06-.85-.19l-17.15-8.17c-1-.47-1.42-1.67-.95-2.67,.33-.69,1.04-1.14,1.81-1.14,.3,0,.58,.06,.85,.19l17.15,8.17c.48,.23,.84,.63,1.02,1.14,.18,.51,.15,1.05-.08,1.53-.33,.69-1.04,1.14-1.81,1.14Z"/>
    <path d="M130.27,78.06h0c.22,0,.44,.05,.64,.14l17.15,8.17c.36,.17,.63,.47,.77,.85s.11,.79-.06,1.15c-.25,.52-.78,.85-1.36,.85-.22,0-.44-.05-.64-.14l-17.15-8.17c-.36-.17-.63-.47-.77-.85s-.11-.79,.06-1.15c.25-.52,.78-.85,1.36-.85m0-1c-.94,0-1.84,.53-2.26,1.42-.59,1.24-.06,2.74,1.18,3.33l17.15,8.17c.34,.16,.71,.24,1.07,.24,.94,0,1.84-.53,2.26-1.42,.59-1.24,.06-2.74-1.18-3.33l-17.15-8.17c-.34-.16-.71-.24-1.07-.24h0Z"/>
  </g>
  <g>
    <path class="cls-1" d="M124.28,171.14c-.3,0-.58-.06-.85-.19l-17.15-8.17c-1-.47-1.42-1.67-.95-2.67,.33-.69,1.04-1.14,1.81-1.14,.3,0,.58,.07,.85,.19l17.15,8.17c.48,.23,.84,.63,1.02,1.14,.18,.51,.15,1.05-.08,1.53-.33,.69-1.04,1.14-1.81,1.14Z"/>
    <path d="M107.14,159.47h0c.22,0,.44,.05,.64,.14l17.15,8.17c.36,.17,.63,.47,.77,.85s.11,.79-.06,1.15c-.25,.52-.78,.85-1.36,.85-.22,0-.44-.05-.64-.14l-17.15-8.17c-.36-.17-.63-.47-.77-.85s-.11-.79,.06-1.15c.25-.52,.78-.85,1.36-.85m0-1c-.94,0-1.84,.53-2.26,1.42-.59,1.24-.06,2.74,1.18,3.33l17.15,8.17c.34,.16,.71,.24,1.07,.24,.94,0,1.84-.53,2.26-1.42,.59-1.24,.06-2.74-1.18-3.33l-17.15-8.17c-.34-.16-.71-.24-1.07-.24h0Z"/>
  </g>
  <g>
    <path class="cls-1" d="M161.55,168.53c-.3,0-.58-.07-.85-.19l-17.15-8.17c-.48-.23-.84-.63-1.02-1.14-.18-.51-.15-1.05,.08-1.53,.33-.69,1.04-1.14,1.81-1.14,.3,0,.58,.07,.85,.19l17.15,8.17c1,.47,1.42,1.67,.95,2.67-.33,.69-1.04,1.14-1.81,1.14Z"/>
    <path d="M144.41,156.86h0c.22,0,.44,.05,.64,.14l17.15,8.17c.75,.36,1.06,1.25,.71,2-.25,.52-.78,.85-1.36,.85-.22,0-.44-.05-.64-.14l-17.15-8.17c-.75-.36-1.06-1.25-.71-2,.25-.52,.78-.85,1.36-.85m0-1c-.94,0-1.84,.53-2.26,1.42h0c-.59,1.24-.06,2.74,1.18,3.33l17.15,8.17c.34,.16,.71,.24,1.07,.24,.94,0,1.84-.53,2.26-1.42,.59-1.24,.06-2.74-1.18-3.33l-17.15-8.17c-.34-.16-.71-.24-1.07-.24h0Z"/>
  </g>
  <g>
    <path class="cls-1" d="M180.18,167.23c-.3,0-.58-.07-.85-.19l-17.15-8.17c-1-.47-1.42-1.67-.95-2.67,.33-.69,1.04-1.14,1.81-1.14,.3,0,.58,.07,.85,.19l17.15,8.17c1,.47,1.42,1.67,.95,2.67-.33,.69-1.04,1.14-1.81,1.14Z"/>
    <path d="M163.05,155.56h0c.22,0,.44,.05,.64,.14l17.15,8.17c.75,.36,1.06,1.25,.71,2-.25,.52-.78,.85-1.36,.85-.22,0-.44-.05-.64-.14l-17.15-8.17c-.75-.36-1.06-1.25-.71-2,.25-.52,.78-.85,1.36-.85m0-1c-.94,0-1.84,.53-2.26,1.42-.59,1.24-.06,2.74,1.18,3.33l17.15,8.17c.34,.16,.71,.24,1.07,.24,.94,0,1.84-.53,2.26-1.42h0c.59-1.24,.06-2.74-1.18-3.33l-17.15-8.17c-.34-.16-.71-.24-1.07-.24h0Z"/>
  </g>
  <g>
    <path class="cls-1" d="M98.35,154.87c-.3,0-.58-.07-.85-.19l-17.15-8.17c-.48-.23-.84-.63-1.02-1.14-.18-.51-.15-1.05,.08-1.53,.33-.69,1.04-1.14,1.81-1.14,.3,0,.58,.06,.85,.19l17.15,8.17c1,.47,1.42,1.67,.94,2.67-.33,.69-1.04,1.14-1.81,1.14Z"/>
    <path d="M81.21,143.2h0c.22,0,.44,.05,.64,.14l17.15,8.17c.75,.36,1.06,1.25,.71,2-.25,.52-.78,.85-1.36,.85-.22,0-.44-.05-.64-.14l-17.15-8.17c-.75-.36-1.06-1.25-.71-2,.25-.52,.78-.85,1.36-.85m0-1c-.94,0-1.84,.53-2.26,1.42-.59,1.24-.06,2.74,1.18,3.33l17.15,8.17c.34,.16,.71,.24,1.07,.24,.94,0,1.84-.53,2.26-1.42,.59-1.24,.06-2.74-1.18-3.33l-17.15-8.17c-.34-.16-.71-.24-1.07-.24h0Z"/>
  </g>
  <g>
    <path class="cls-1" d="M116.98,153.56c-.3,0-.58-.07-.85-.19l-17.15-8.17c-.48-.23-.84-.63-1.02-1.14-.18-.51-.15-1.05,.08-1.53,.33-.69,1.04-1.14,1.81-1.14,.3,0,.58,.06,.85,.19l17.15,8.17c1,.47,1.42,1.67,.95,2.67-.33,.69-1.04,1.14-1.81,1.14Z"/>
    <path d="M99.85,141.89h0c.22,0,.44,.05,.64,.14l17.15,8.17c.75,.36,1.06,1.25,.71,2-.25,.52-.78,.85-1.36,.85-.22,0-.44-.05-.64-.14l-17.15-8.17c-.75-.36-1.06-1.25-.71-2,.25-.52,.78-.85,1.36-.85m0-1c-.94,0-1.84,.53-2.26,1.42h0c-.59,1.24-.06,2.74,1.18,3.33l17.15,8.17c.34,.16,.71,.24,1.07,.24,.94,0,1.84-.53,2.26-1.42,.59-1.24,.06-2.74-1.18-3.33l-17.15-8.17c-.34-.16-.71-.24-1.07-.24h0Z"/>
  </g>
  <g>
    <path class="cls-1" d="M135.62,152.26c-.3,0-.58-.07-.85-.19l-17.15-8.17c-.48-.23-.84-.63-1.02-1.14-.18-.5-.15-1.05,.08-1.53,.33-.69,1.04-1.14,1.81-1.14,.3,0,.58,.07,.85,.19l17.15,8.17c.48,.23,.84,.63,1.02,1.14,.18,.5,.15,1.05-.08,1.53-.33,.69-1.04,1.14-1.81,1.14Z"/>
    <path d="M118.48,140.59h0c.22,0,.44,.05,.64,.14l17.15,8.17c.36,.17,.63,.47,.77,.85s.11,.79-.06,1.15c-.25,.52-.78,.85-1.36,.85-.22,0-.44-.05-.64-.14l-17.15-8.17c-.36-.17-.63-.47-.77-.85-.13-.38-.11-.79,.06-1.15,.25-.52,.78-.85,1.36-.85m0-1c-.94,0-1.84,.53-2.26,1.42-.59,1.24-.06,2.74,1.18,3.33l17.15,8.17c.34,.16,.71,.24,1.07,.24,.94,0,1.84-.53,2.26-1.42h0c.59-1.24,.06-2.74-1.18-3.33l-17.15-8.17c-.34-.16-.71-.24-1.07-.24h0Z"/>
  </g>
  <g>
    <path class="cls-1" d="M154.26,150.96c-.3,0-.58-.07-.85-.19l-17.15-8.17c-.48-.23-.84-.63-1.02-1.14-.18-.5-.15-1.05,.08-1.53,.33-.69,1.04-1.14,1.81-1.14,.3,0,.58,.07,.85,.19l17.15,8.17c1,.47,1.42,1.67,.95,2.67-.33,.69-1.04,1.14-1.81,1.14Z"/>
    <path d="M137.12,139.29h0c.22,0,.44,.05,.64,.14l17.15,8.17c.36,.17,.63,.47,.77,.85s.11,.79-.06,1.15c-.25,.52-.78,.85-1.36,.85-.22,0-.44-.05-.64-.14l-17.15-8.17c-.36-.17-.63-.47-.77-.85s-.11-.79,.06-1.15c.25-.52,.78-.85,1.36-.85m0-1c-.94,0-1.84,.53-2.26,1.42-.59,1.24-.06,2.74,1.18,3.33l17.15,8.17c.34,.16,.71,.24,1.07,.24,.94,0,1.84-.53,2.26-1.42h0c.59-1.24,.06-2.74-1.18-3.33l-17.15-8.17c-.34-.16-.71-.24-1.07-.24h0Z"/>
  </g>
  <g>
    <path class="cls-1" d="M172.89,149.66c-.3,0-.58-.06-.85-.19l-17.15-8.17c-1-.47-1.42-1.67-.95-2.67,.33-.69,1.04-1.14,1.81-1.14,.3,0,.58,.07,.85,.19l17.15,8.17c.48,.23,.84,.63,1.02,1.14,.18,.51,.15,1.05-.08,1.53-.33,.69-1.04,1.14-1.81,1.14Z"/>
    <path d="M155.76,137.99h0c.22,0,.44,.05,.64,.14l17.15,8.17c.75,.36,1.06,1.25,.71,2-.25,.52-.78,.85-1.36,.85-.22,0-.44-.05-.64-.14l-17.15-8.17c-.75-.36-1.06-1.25-.71-2,.25-.52,.78-.85,1.36-.85m0-1c-.94,0-1.84,.53-2.26,1.42-.59,1.24-.06,2.74,1.18,3.33l17.15,8.17c.34,.16,.71,.24,1.07,.24,.94,0,1.84-.53,2.26-1.42,.59-1.24,.06-2.74-1.18-3.33l-17.15-8.17c-.34-.16-.71-.24-1.07-.24h0Z"/>
  </g>
  <g>
    <path class="cls-1" d="M86.95,137.69c-.3,0-.58-.07-.85-.19l-17.15-8.17c-.48-.23-.84-.63-1.02-1.14-.18-.51-.15-1.05,.08-1.53,.33-.69,1.04-1.14,1.81-1.14,.3,0,.58,.07,.85,.19l17.15,8.17c1,.47,1.42,1.67,.95,2.67-.33,.69-1.04,1.14-1.81,1.14Z"/>
    <path d="M69.82,126.02h0c.22,0,.44,.05,.64,.14l17.15,8.17c.75,.36,1.06,1.25,.71,2-.25,.52-.78,.85-1.36,.85-.22,0-.44-.05-.64-.14l-17.15-8.17c-.75-.36-1.06-1.25-.71-2,.25-.52,.78-.85,1.36-.85m0-1c-.94,0-1.84,.53-2.26,1.42h0c-.59,1.24-.06,2.74,1.18,3.33l17.15,8.17c.34,.16,.71,.24,1.07,.24,.94,0,1.84-.53,2.26-1.42h0c.59-1.24,.06-2.74-1.18-3.33l-17.15-8.17c-.34-.16-.71-.24-1.07-.24h0Z"/>
  </g>
  <g>
    <path class="cls-1" d="M105.59,136.38c-.3,0-.58-.07-.85-.19l-17.15-8.17c-1-.47-1.42-1.67-.95-2.67,.33-.69,1.04-1.14,1.81-1.14,.3,0,.58,.06,.85,.19l17.15,8.17c.48,.23,.84,.63,1.02,1.14,.18,.5,.15,1.05-.08,1.53-.33,.69-1.04,1.14-1.81,1.14Z"/>
    <path d="M88.45,124.71h0c.22,0,.44,.05,.64,.14l17.15,8.17c.75,.36,1.06,1.25,.71,2-.25,.52-.78,.85-1.36,.85-.22,0-.44-.05-.64-.14l-17.15-8.17c-.75-.36-1.06-1.25-.71-2,.25-.52,.78-.85,1.36-.85m0-1c-.94,0-1.84,.53-2.26,1.42-.59,1.24-.06,2.74,1.18,3.33l17.15,8.17c.34,.16,.71,.24,1.07,.24,.94,0,1.84-.53,2.26-1.42,.59-1.24,.06-2.74-1.18-3.33l-17.15-8.17c-.34-.16-.71-.24-1.07-.24h0Z"/>
  </g>
  <g>
    <path class="cls-1" d="M124.23,135.08c-.3,0-.58-.07-.85-.19l-17.15-8.17c-.48-.23-.84-.63-1.02-1.14-.18-.51-.15-1.05,.08-1.53,.33-.69,1.04-1.14,1.81-1.14,.3,0,.58,.06,.85,.19l17.15,8.17c1,.47,1.42,1.67,.94,2.67-.33,.69-1.04,1.14-1.81,1.14Z"/>
    <path d="M107.09,123.41h0c.22,0,.44,.05,.64,.14l17.15,8.17c.75,.36,1.06,1.25,.71,2-.25,.52-.78,.85-1.36,.85-.22,0-.44-.05-.64-.14l-17.15-8.17c-.36-.17-.63-.47-.77-.85s-.11-.79,.06-1.15c.25-.52,.78-.85,1.36-.85m0-1c-.94,0-1.84,.53-2.26,1.42h0c-.59,1.24-.06,2.74,1.18,3.33l17.15,8.17c.34,.16,.71,.24,1.07,.24,.94,0,1.84-.53,2.26-1.42,.59-1.24,.06-2.74-1.18-3.33l-17.15-8.17c-.34-.16-.71-.24-1.07-.24h0Z"/>
  </g>
  <g>
    <path class="cls-1" d="M142.86,133.78c-.3,0-.58-.07-.85-.19l-17.15-8.17c-.48-.23-.84-.63-1.02-1.14-.18-.51-.15-1.05,.08-1.53,.33-.69,1.04-1.14,1.81-1.14,.3,0,.58,.07,.85,.19l17.15,8.17c.48,.23,.84,.63,1.02,1.14,.18,.51,.15,1.05-.08,1.53-.33,.69-1.04,1.14-1.81,1.14Z"/>
    <path d="M125.72,122.11h0c.22,0,.44,.05,.64,.14l17.15,8.17c.36,.17,.63,.47,.77,.85,.13,.38,.11,.79-.06,1.15-.25,.52-.78,.85-1.36,.85-.22,0-.44-.05-.64-.14l-17.15-8.17c-.36-.17-.63-.47-.77-.85s-.11-.79,.06-1.15c.25-.52,.78-.85,1.36-.85m0-1c-.94,0-1.84,.53-2.26,1.42-.59,1.24-.06,2.74,1.18,3.33l17.15,8.17c.34,.16,.71,.24,1.07,.24,.94,0,1.84-.53,2.26-1.42,.59-1.24,.06-2.74-1.18-3.33l-17.15-8.17c-.34-.16-.71-.24-1.07-.24h0Z"/>
  </g>
  <g>
    <path class="cls-1" d="M161.5,132.48c-.3,0-.58-.06-.85-.19l-17.15-8.17c-1-.47-1.42-1.67-.95-2.67,.33-.69,1.04-1.14,1.81-1.14,.3,0,.58,.07,.85,.19l17.15,8.17c.48,.23,.84,.63,1.02,1.14,.18,.51,.15,1.05-.08,1.53-.33,.69-1.04,1.14-1.81,1.14Z"/>
    <path d="M144.36,120.81h0c.22,0,.44,.05,.64,.14l17.15,8.17c.75,.36,1.06,1.25,.71,2-.25,.52-.78,.85-1.36,.85-.22,0-.44-.05-.64-.14l-17.15-8.17c-.75-.36-1.06-1.25-.71-2,.25-.52,.78-.85,1.36-.85m0-1c-.94,0-1.84,.53-2.26,1.42h0c-.59,1.24-.06,2.74,1.18,3.33l17.15,8.17c.34,.16,.71,.24,1.07,.24,.94,0,1.84-.53,2.26-1.42h0c.59-1.24,.06-2.74-1.18-3.33l-17.15-8.17c-.34-.16-.71-.24-1.07-.24h0Z"/>
  </g>
  <g>
    <path class="cls-1" d="M180.13,131.18c-.3,0-.58-.06-.85-.19l-17.15-8.17c-.48-.23-.84-.63-1.02-1.14-.18-.51-.15-1.05,.08-1.53,.33-.69,1.04-1.14,1.81-1.14,.3,0,.58,.06,.85,.19l17.15,8.17c.48,.23,.84,.63,1.02,1.14,.18,.51,.15,1.05-.08,1.53-.33,.69-1.04,1.14-1.81,1.14Z"/>
    <path d="M163,119.51h0c.22,0,.44,.05,.64,.14l17.15,8.17c.75,.36,1.06,1.25,.71,2-.25,.52-.78,.85-1.36,.85-.22,0-.44-.05-.64-.14l-17.15-8.17c-.75-.36-1.06-1.25-.71-2,.25-.52,.78-.85,1.36-.85m0-1c-.94,0-1.84,.53-2.26,1.42-.59,1.24-.06,2.74,1.18,3.33l17.15,8.17c.34,.16,.71,.24,1.07,.24,.94,0,1.84-.53,2.26-1.42,.59-1.24,.06-2.74-1.18-3.33l-17.15-8.17c-.34-.16-.71-.24-1.07-.24h0Z"/>
  </g>
  <g>
    <path class="cls-1" d="M104.29,117.75c-.3,0-.58-.07-.85-.19l-17.15-8.17c-.48-.23-.84-.63-1.02-1.14-.18-.51-.15-1.05,.08-1.53,.33-.69,1.04-1.14,1.81-1.14,.3,0,.58,.07,.85,.19l17.15,8.17c1,.48,1.42,1.67,.95,2.67-.33,.69-1.04,1.14-1.81,1.14Z"/>
    <path d="M87.15,106.08h0c.22,0,.44,.05,.64,.14l17.15,8.17c.75,.36,1.06,1.25,.71,2-.25,.52-.78,.85-1.36,.85-.22,0-.44-.05-.64-.14l-17.15-8.17c-.75-.36-1.06-1.25-.71-2,.25-.52,.78-.85,1.36-.85m0-1c-.94,0-1.84,.53-2.26,1.42-.59,1.24-.06,2.74,1.18,3.33l17.15,8.17c.34,.16,.71,.24,1.07,.24,.94,0,1.84-.53,2.26-1.42,.59-1.24,.06-2.74-1.18-3.33l-17.15-8.17c-.34-.16-.71-.24-1.07-.24h0Z"/>
  </g>
  <g>
    <path class="cls-1" d="M122.92,116.45c-.3,0-.58-.06-.85-.19l-17.15-8.17c-.48-.23-.84-.63-1.02-1.14-.18-.51-.15-1.05,.08-1.53,.33-.69,1.04-1.14,1.81-1.14,.3,0,.58,.06,.85,.19l17.15,8.17c.48,.23,.84,.63,1.02,1.14,.18,.51,.15,1.05-.08,1.53-.33,.69-1.04,1.14-1.81,1.14Z"/>
    <path d="M105.79,104.78h0c.22,0,.44,.05,.64,.14l17.15,8.17c.36,.17,.63,.47,.77,.85s.11,.79-.06,1.15c-.25,.52-.78,.85-1.36,.85-.22,0-.44-.05-.64-.14l-17.15-8.17c-.36-.17-.63-.47-.77-.85s-.11-.79,.06-1.15c.25-.52,.78-.85,1.36-.85m0-1c-.94,0-1.84,.53-2.26,1.42-.59,1.24-.06,2.74,1.18,3.33l17.15,8.17c.34,.16,.71,.24,1.07,.24,.94,0,1.84-.53,2.26-1.42,.59-1.24,.06-2.74-1.18-3.33l-17.15-8.17c-.34-.16-.71-.24-1.07-.24h0Z"/>
  </g>
  <g>
    <path class="cls-1" d="M141.56,115.14c-.3,0-.58-.06-.85-.19l-17.15-8.17c-.48-.23-.84-.63-1.02-1.14-.18-.51-.15-1.05,.08-1.53,.33-.69,1.04-1.14,1.81-1.14,.3,0,.58,.06,.85,.19l17.15,8.17c1,.47,1.42,1.67,.95,2.67-.33,.69-1.04,1.14-1.81,1.14Z"/>
    <path d="M124.42,103.47h0c.22,0,.44,.05,.64,.14l17.15,8.17c.36,.17,.63,.47,.77,.85s.11,.79-.06,1.15c-.25,.52-.78,.85-1.36,.85-.22,0-.44-.05-.64-.14l-17.15-8.17c-.36-.17-.63-.47-.77-.85s-.11-.79,.06-1.15c.25-.52,.78-.85,1.36-.85m0-1c-.94,0-1.84,.53-2.26,1.42-.59,1.24-.06,2.74,1.18,3.33l17.15,8.17c.34,.16,.71,.24,1.07,.24,.94,0,1.84-.53,2.26-1.42,.59-1.24,.06-2.74-1.18-3.33l-17.15-8.17c-.34-.16-.71-.24-1.07-.24h0Z"/>
  </g>
  <g>
    <path class="cls-1" d="M160.2,113.84c-.3,0-.58-.06-.85-.19l-17.15-8.17c-1-.47-1.42-1.67-.95-2.67,.33-.69,1.04-1.14,1.81-1.14,.3,0,.58,.07,.85,.19l17.15,8.17c.48,.23,.84,.63,1.02,1.14,.18,.51,.15,1.05-.08,1.53-.33,.69-1.04,1.14-1.81,1.14Z"/>
    <path d="M143.06,102.17h0c.22,0,.44,.05,.64,.14l17.15,8.17c.75,.36,1.06,1.25,.71,2-.25,.52-.78,.85-1.36,.85-.22,0-.44-.05-.64-.14l-17.15-8.17c-.75-.36-1.06-1.25-.71-2,.25-.52,.78-.85,1.36-.85m0-1c-.94,0-1.84,.53-2.26,1.42-.59,1.24-.06,2.74,1.18,3.33l17.15,8.17c.34,.16,.71,.24,1.07,.24,.94,0,1.84-.53,2.26-1.42,.59-1.24,.06-2.74-1.18-3.33l-17.15-8.17c-.34-.16-.71-.24-1.07-.24h0Z"/>
  </g>
  <g>
    <path class="cls-1" d="M115.97,99.82c-.3,0-.58-.07-.85-.19l-17.15-8.17c-.48-.23-.84-.63-1.02-1.14-.18-.51-.15-1.05,.08-1.53,.33-.69,1.04-1.14,1.81-1.14,.3,0,.58,.06,.85,.19l17.15,8.17c.48,.23,.84,.63,1.02,1.14,.18,.51,.15,1.05-.08,1.53-.33,.69-1.04,1.14-1.81,1.14Z"/>
    <path d="M98.83,88.14h0c.22,0,.44,.05,.64,.14l17.15,8.17c.36,.17,.63,.47,.77,.85s.11,.79-.06,1.15c-.25,.52-.78,.85-1.36,.85-.22,0-.44-.05-.64-.14l-17.15-8.17c-.36-.17-.63-.47-.77-.85s-.11-.79,.06-1.15c.25-.52,.78-.85,1.36-.85m0-1c-.94,0-1.84,.53-2.26,1.42-.59,1.24-.06,2.74,1.18,3.33l17.15,8.17c.34,.16,.71,.24,1.07,.24,.94,0,1.84-.53,2.26-1.42,.59-1.24,.06-2.74-1.18-3.33l-17.15-8.17c-.34-.16-.71-.24-1.07-.24h0Z"/>
  </g>
  <g>
    <path class="cls-1" d="M134.6,98.51c-.3,0-.58-.06-.85-.19l-17.15-8.17c-.48-.23-.84-.63-1.02-1.14-.18-.51-.15-1.05,.08-1.53,.33-.69,1.04-1.14,1.81-1.14,.3,0,.58,.06,.85,.19l17.15,8.17c1,.47,1.42,1.67,.95,2.67-.33,.69-1.04,1.14-1.81,1.14Z"/>
    <path d="M117.47,86.84h0c.22,0,.44,.05,.64,.14l17.15,8.17c.75,.36,1.06,1.25,.71,2-.25,.52-.78,.85-1.36,.85-.22,0-.44-.05-.64-.14l-17.15-8.17c-.75-.36-1.06-1.25-.71-2,.25-.52,.78-.85,1.36-.85m0-1c-.94,0-1.84,.53-2.26,1.42-.59,1.24-.06,2.74,1.18,3.33l17.15,8.17c.34,.16,.71,.24,1.07,.24,.94,0,1.84-.53,2.26-1.42,.59-1.24,.06-2.74-1.18-3.33l-17.15-8.17c-.34-.16-.71-.24-1.07-.24h0Z"/>
  </g>
</svg>