<?xml version="1.0" encoding="UTF-8"?>
<svg id="Layer_1" data-name="Layer 1" xmlns="http://www.w3.org/2000/svg" viewBox="0 0 250 250">
  <defs>
    <style>
      .cls-1 {
        fill: #fff;
      }

      .cls-2 {
        fill: #347bb7;
        stroke: #000;
        stroke-miterlimit: 10;
      }

      .cls-3 {
        fill: #a8a8a8;
      }
    </style>
  </defs>
  <g>
    <path class="cls-3" d="M80.5,123.65c-9.1,0-16.5-7.4-16.5-16.5s7.4-16.5,16.5-16.5h4.5v-1.5c0-13.51,10.99-24.5,24.5-24.5,1.11,0,2.25,.08,3.39,.24l.47,.07,.09-.47c2.21-11.5,12.33-19.84,24.05-19.84,13.51,0,24.5,10.99,24.5,24.5v2.92l.24,.15c7.36,4.49,11.76,12.32,11.76,20.93v2c0,.35-.01,.69-.03,1.04v.19s.12,.15,.12,.15c2.52,2.98,3.91,6.75,3.91,10.62,0,9.1-7.4,16.5-16.5,16.5H80.5Z"/>
    <path d="M137.5,45.15c13.23,0,24,10.77,24,24v3.2l.48,.29c7.21,4.4,11.52,12.07,11.52,20.5v2c0,.34-.01,.68-.03,1.02l-.02,.39,.25,.3c2.44,2.89,3.79,6.55,3.79,10.3,0,8.82-7.18,16-16,16H80.5c-8.82,0-16-7.18-16-16s7.18-16,16-16h5v-2c0-13.23,10.77-24,24-24,1.08,0,2.2,.08,3.32,.23l.94,.13,.18-.93c2.17-11.26,12.08-19.43,23.56-19.43m0-1c-12.18,0-22.32,8.71-24.54,20.24-1.13-.16-2.28-.24-3.46-.24-13.81,0-25,11.19-25,25v1h-4c-9.35,0-17,7.65-17,17s7.65,17,17,17h81c9.35,0,17-7.65,17-17,0-4.16-1.52-7.98-4.03-10.94,.01-.35,.03-.7,.03-1.06v-2c0-9.05-4.8-16.97-12-21.36v-2.64c0-13.81-11.19-25-25-25h0Z"/>
  </g>
  <g>
    <path class="cls-1" d="M48,134.65c-9.1,0-16.5-7.4-16.5-16.5s7.4-16.5,16.5-16.5h4.5v-1.5c0-13.51,10.99-24.5,24.5-24.5,1.11,0,2.25,.08,3.39,.24l.47,.07,.09-.47c2.21-11.5,12.33-19.84,24.05-19.84,13.51,0,24.5,10.99,24.5,24.5v2.92l.24,.15c7.36,4.49,11.76,12.32,11.76,20.93v2c0,.35-.01,.69-.03,1.04v.19s.12,.15,.12,.15c2.52,2.98,3.91,6.75,3.91,10.62,0,9.1-7.4,16.5-16.5,16.5H48Z"/>
    <path d="M105,56.15c13.23,0,24,10.77,24,24v3.2l.48,.29c7.21,4.4,11.52,12.07,11.52,20.5v2c0,.34-.01,.68-.03,1.02l-.02,.39,.25,.3c2.44,2.89,3.79,6.55,3.79,10.3,0,8.82-7.18,16-16,16H48c-8.82,0-16-7.18-16-16s7.18-16,16-16h5v-2c0-13.23,10.77-24,24-24,1.08,0,2.2,.08,3.32,.23l.94,.13,.18-.93c2.17-11.26,12.08-19.43,23.56-19.43m0-1c-12.18,0-22.32,8.71-24.54,20.24-1.13-.16-2.28-.24-3.46-.24-13.81,0-25,11.19-25,25v1h-4c-9.35,0-17,7.65-17,17s7.65,17,17,17h81c9.35,0,17-7.65,17-17,0-4.16-1.52-7.98-4.03-10.94,.01-.35,.03-.7,.03-1.06v-2c0-9.05-4.8-16.97-12-21.36v-2.64c0-13.81-11.19-25-25-25h0Z"/>
  </g>
  <g>
    <path class="cls-3" d="M121,146.65c-9.1,0-16.5-7.4-16.5-16.5s7.4-16.5,16.5-16.5h4.5v-1.5c0-13.51,10.99-24.5,24.5-24.5,1.11,0,2.25,.08,3.39,.24l.47,.07,.09-.47c2.21-11.5,12.33-19.84,24.05-19.84,13.51,0,24.5,10.99,24.5,24.5v2.92l.24,.15c7.36,4.49,11.76,12.32,11.76,20.93v2c0,.35-.01,.69-.03,1.04v.19s.12,.15,.12,.15c2.52,2.98,3.91,6.75,3.91,10.62,0,9.1-7.4,16.5-16.5,16.5H121Z"/>
    <path d="M178,68.15c13.23,0,24,10.77,24,24v3.2l.48,.29c7.21,4.4,11.52,12.07,11.52,20.5v2c0,.34-.01,.68-.03,1.02l-.02,.39,.25,.3c2.44,2.89,3.79,6.55,3.79,10.3,0,8.82-7.18,16-16,16H121c-8.82,0-16-7.18-16-16s7.18-16,16-16h5v-2c0-13.23,10.77-24,24-24,1.08,0,2.2,.08,3.32,.23l.94,.13,.18-.93c2.17-11.26,12.08-19.43,23.56-19.43m0-1c-12.18,0-22.32,8.71-24.54,20.24-1.13-.16-2.28-.24-3.46-.24-13.81,0-25,11.19-25,25v1h-4c-9.35,0-17,7.65-17,17s7.65,17,17,17h81c9.35,0,17-7.65,17-17,0-4.16-1.52-7.98-4.03-10.94,.01-.35,.03-.7,.03-1.06v-2c0-9.05-4.8-16.97-12-21.36v-2.64c0-13.81-11.19-25-25-25h0Z"/>
  </g>
  <path class="cls-2" d="M62.48,139.52l-4.61,7.95c-2.61,4.5-.44,10.85,4.01,11.35,.13,.01,.26,.03,.4,.03s.27,0,.4,0c4.55-.09,7.15-6.56,4.56-11.07l-4.75-8.26Z"/>
  <path class="cls-2" d="M73.18,158.65l-2.77,7.09c-1.57,4.02-.41,9.59,2.14,9.97,.08,.01,.15,.02,.23,.02s.15,0,.23,0c2.62-.14,4.21-5.9,2.78-9.85l-2.61-7.24Z"/>
  <path class="cls-2" d="M86.48,137.52l-4.61,7.95c-2.61,4.5-.44,10.85,4.01,11.35,.13,.01,.26,.03,.4,.03s.27,0,.4,0c4.55-.09,7.15-6.56,4.56-11.07l-4.75-8.26Z"/>
  <path class="cls-2" d="M103.95,139.47l-2.69,4.63c-1.52,2.62-.25,6.32,2.34,6.61,.08,0,.15,.01,.23,.02s.15,0,.23,0c2.65-.05,4.17-3.82,2.66-6.45l-2.77-4.82Z"/>
  <path class="cls-2" d="M117.48,138.52l-4.61,7.95c-2.61,4.5-.44,10.85,4.01,11.35,.13,.01,.26,.03,.4,.03s.27,0,.4,0c4.55-.09,7.15-6.56,4.56-11.07l-4.75-8.26Z"/>
  <path class="cls-2" d="M107.57,158.39l-2.07,4.68c-1.18,2.65-.27,6.35,1.68,6.62,.06,0,.11,.01,.17,.02s.12,0,.17,0c1.99-.08,3.18-3.89,2.07-6.51l-2.02-4.8Z"/>
  <path class="cls-2" d="M135.48,144.52l-4.61,7.95c-2.61,4.5-.44,10.85,4.01,11.35,.13,.01,.26,.03,.4,.03s.27,0,.4,0c4.55-.09,7.15-6.56,4.56-11.07l-4.75-8.26Z"/>
  <path class="cls-2" d="M159.48,142.52l-4.61,7.95c-2.61,4.5-.44,10.85,4.01,11.35,.13,.01,.26,.03,.4,.03s.27,0,.4,0c4.55-.09,7.15-6.56,4.56-11.07l-4.75-8.26Z"/>
  <path class="cls-2" d="M167.48,164.52l-4.61,7.95c-2.61,4.5-.44,10.85,4.01,11.35,.13,.01,.26,.03,.4,.03s.27,0,.4,0c4.55-.09,7.15-6.56,4.56-11.07l-4.75-8.26Z"/>
  <path class="cls-2" d="M176.95,144.47l-2.69,4.63c-1.52,2.62-.25,6.32,2.34,6.61,.08,0,.15,.01,.23,.02s.15,0,.23,0c2.65-.05,4.17-3.82,2.66-6.45l-2.77-4.82Z"/>
  <path class="cls-2" d="M190.48,143.52l-4.61,7.95c-2.61,4.5-.44,10.85,4.01,11.35,.13,.01,.26,.03,.4,.03s.27,0,.4,0c4.55-.09,7.15-6.56,4.56-11.07l-4.75-8.26Z"/>
  <path class="cls-2" d="M180.57,163.39l-2.07,4.68c-1.18,2.65-.27,6.35,1.68,6.62,.06,0,.11,.01,.17,.02s.12,0,.17,0c1.99-.08,3.18-3.89,2.07-6.51l-2.02-4.8Z"/>
  <path class="cls-2" d="M94.48,166.52l-4.61,7.95c-2.61,4.5-.44,10.85,4.01,11.35,.13,.01,.26,.03,.4,.03s.27,0,.4,0c4.55-.09,7.15-6.56,4.56-11.07l-4.75-8.26Z"/>
  <path class="cls-2" d="M105.18,185.65l-2.77,7.09c-1.57,4.02-.41,9.59,2.14,9.97,.08,.01,.15,.02,.23,.02s.15,0,.23,0c2.62-.14,4.21-5.9,2.78-9.85l-2.61-7.24Z"/>
  <path class="cls-2" d="M118.48,164.52l-4.61,7.95c-2.61,4.5-.44,10.85,4.01,11.35,.13,.01,.26,.03,.4,.03s.27,0,.4,0c4.55-.09,7.15-6.56,4.56-11.07l-4.75-8.26Z"/>
  <path class="cls-2" d="M126.48,186.52l-4.61,7.95c-2.61,4.5-.44,10.85,4.01,11.35,.13,.01,.26,.03,.4,.03s.27,0,.4,0c4.55-.09,7.15-6.56,4.56-11.07l-4.75-8.26Z"/>
  <path class="cls-2" d="M135.95,166.47l-2.69,4.63c-1.52,2.62-.25,6.32,2.34,6.61,.08,0,.15,.01,.23,.02s.15,0,.23,0c2.65-.05,4.17-3.82,2.66-6.45l-2.77-4.82Z"/>
  <path class="cls-2" d="M149.48,165.52l-4.61,7.95c-2.61,4.5-.44,10.85,4.01,11.35,.13,.01,.26,.03,.4,.03s.27,0,.4,0c4.55-.09,7.15-6.56,4.56-11.07l-4.75-8.26Z"/>
  <path class="cls-2" d="M139.57,185.39l-2.07,4.68c-1.18,2.65-.27,6.35,1.68,6.62,.06,0,.11,.01,.17,.02s.12,0,.17,0c1.99-.08,3.18-3.89,2.07-6.51l-2.02-4.8Z"/>
</svg>