<?xml version="1.0" encoding="UTF-8"?>
<svg id="Layer_1" data-name="Layer 1" xmlns="http://www.w3.org/2000/svg" viewBox="0 0 250 250">
  <defs>
    <style>
      .cls-1 {
        fill: #347bb7;
      }

      .cls-1, .cls-2 {
        stroke: #000;
        stroke-miterlimit: 10;
      }

      .cls-2 {
        fill: #fff;
      }
    </style>
  </defs>
  <polygon class="cls-1" points="125 64.51 134.35 96.24 160.55 76.07 149.47 107.22 182.53 106.31 155.24 125 182.53 143.69 149.47 142.78 160.55 173.93 134.35 153.76 125 185.49 115.65 153.76 89.45 173.93 100.53 142.78 67.47 143.69 94.76 125 67.47 106.31 100.53 107.22 89.45 76.07 115.65 96.24 125 64.51"/>
  <polygon class="cls-2" points="125 86.29 130.98 106.59 147.75 93.68 140.66 113.62 161.82 113.04 144.36 125 161.82 136.96 140.66 136.38 147.75 156.32 130.98 143.41 125 163.71 119.02 143.41 102.25 156.32 109.34 136.38 88.18 136.96 105.64 125 88.18 113.04 109.34 113.62 102.25 93.68 119.02 106.59 125 86.29"/>
  <path class="cls-1" d="M137.39,125l11.18-7.66-13.54,.37,4.54-12.76-10.73,8.26-3.83-12.99-3.83,12.99-10.73-8.26,4.54,12.76-13.54-.37,11.18,7.66-11.18,7.66,13.54-.37-4.54,12.76,10.73-8.26,3.83,12.99,3.83-12.99,10.73,8.26-4.54-12.76,13.54,.37-11.18-7.66Zm-8.15,1.38l-2.44-.07,.82,2.3-1.93-1.49-.69,2.34-.69-2.34-1.93,1.49,.82-2.3-2.44,.07,2.01-1.38-2.01-1.38,2.44,.07-.82-2.3,1.93,1.49,.69-2.34,.69,2.34,1.93-1.49-.82,2.3,2.44-.07-2.01,1.38,2.01,1.38Z"/>
</svg>