<?xml version="1.0" encoding="UTF-8"?>
<svg id="Layer_1" data-name="Layer 1" xmlns="http://www.w3.org/2000/svg" viewBox="0 0 250 250">
  <defs>
    <style>
      .cls-1 {
        fill: #fff;
      }

      .cls-2 {
        fill: #db9c37;
      }

      .cls-2, .cls-3 {
        stroke: #000;
        stroke-miterlimit: 10;
      }

      .cls-3 {
        fill: #ddd436;
      }

      .cls-4 {
        fill: #a8a8a8;
      }
    </style>
  </defs>
  <g>
    <path class="cls-4" d="M86.5,119.65c-9.1,0-16.5-7.4-16.5-16.5s7.4-16.5,16.5-16.5h4.5v-1.5c0-13.51,10.99-24.5,24.5-24.5,1.11,0,2.25,.08,3.39,.24l.47,.07,.09-.47c2.21-11.5,12.33-19.84,24.05-19.84,13.51,0,24.5,10.99,24.5,24.5v2.92l.24,.15c7.36,4.49,11.76,12.32,11.76,20.93v2c0,.35-.01,.69-.03,1.04v.19s.12,.15,.12,.15c2.52,2.98,3.91,6.75,3.91,10.62,0,9.1-7.4,16.5-16.5,16.5H86.5Z"/>
    <path d="M143.5,41.15c13.23,0,24,10.77,24,24v3.2l.48,.29c7.21,4.4,11.52,12.07,11.52,20.5v2c0,.34-.01,.68-.03,1.02l-.02,.39,.25,.3c2.44,2.89,3.79,6.55,3.79,10.3,0,8.82-7.18,16-16,16H86.5c-8.82,0-16-7.18-16-16s7.18-16,16-16h5v-2c0-13.23,10.77-24,24-24,1.08,0,2.2,.08,3.32,.23l.94,.13,.18-.93c2.17-11.26,12.08-19.43,23.56-19.43m0-1c-12.18,0-22.32,8.71-24.54,20.24-1.13-.16-2.28-.24-3.46-.24-13.81,0-25,11.19-25,25v1h-4c-9.35,0-17,7.65-17,17s7.65,17,17,17h81c9.35,0,17-7.65,17-17,0-4.16-1.52-7.98-4.03-10.94,.01-.35,.03-.7,.03-1.06v-2c0-9.05-4.8-16.97-12-21.36v-2.64c0-13.81-11.19-25-25-25h0Z"/>
  </g>
  <polyline class="cls-3" points="78.5 128.5 66.5 146.5 84.5 146.5 74.5 165.5 94.5 141.04 81.11 141.04 88.32 129.24"/>
  <polyline class="cls-3" points="164.5 135.5 152.5 153.5 170.5 153.5 160.5 172.5 180.5 148.04 167.11 148.04 174.32 136.24"/>
  <polyline class="cls-2" points="121.21 128.5 106 159.39 128.82 159.39 116.14 192 141.5 150.02 124.52 150.02 133.67 129.77"/>
  <g>
    <path class="cls-1" d="M54,130.65c-9.1,0-16.5-7.4-16.5-16.5s7.4-16.5,16.5-16.5h4.5v-1.5c0-13.51,10.99-24.5,24.5-24.5,1.11,0,2.25,.08,3.39,.24l.47,.07,.09-.47c2.21-11.5,12.33-19.84,24.05-19.84,13.51,0,24.5,10.99,24.5,24.5v2.92l.24,.15c7.36,4.49,11.76,12.32,11.76,20.93v2c0,.35-.01,.69-.03,1.04v.19s.12,.15,.12,.15c2.52,2.98,3.91,6.75,3.91,10.62,0,9.1-7.4,16.5-16.5,16.5H54Z"/>
    <path d="M111,52.15c13.23,0,24,10.77,24,24v3.2l.48,.29c7.21,4.4,11.52,12.07,11.52,20.5v2c0,.34-.01,.68-.03,1.02l-.02,.39,.25,.3c2.44,2.89,3.79,6.55,3.79,10.3,0,8.82-7.18,16-16,16H54c-8.82,0-16-7.18-16-16s7.18-16,16-16h5v-2c0-13.23,10.77-24,24-24,1.08,0,2.2,.08,3.32,.23l.94,.13,.18-.93c2.17-11.26,12.08-19.43,23.56-19.43m0-1c-12.18,0-22.32,8.71-24.54,20.24-1.13-.16-2.28-.24-3.46-.24-13.81,0-25,11.19-25,25v1h-4c-9.35,0-17,7.65-17,17s7.65,17,17,17h81c9.35,0,17-7.65,17-17,0-4.16-1.52-7.98-4.03-10.94,.01-.35,.03-.7,.03-1.06v-2c0-9.05-4.8-16.97-12-21.36v-2.64c0-13.81-11.19-25-25-25h0Z"/>
  </g>
  <g>
    <path class="cls-4" d="M127,142.65c-9.1,0-16.5-7.4-16.5-16.5s7.4-16.5,16.5-16.5h4.5v-1.5c0-13.51,10.99-24.5,24.5-24.5,1.11,0,2.25,.08,3.39,.24l.47,.07,.09-.47c2.21-11.5,12.33-19.84,24.05-19.84,13.51,0,24.5,10.99,24.5,24.5v2.92l.24,.15c7.36,4.49,11.76,12.32,11.76,20.93v2c0,.35-.01,.69-.03,1.04v.19s.12,.15,.12,.15c2.52,2.98,3.91,6.75,3.91,10.62,0,9.1-7.4,16.5-16.5,16.5H127Z"/>
    <path d="M184,64.15c13.23,0,24,10.77,24,24v3.2l.48,.29c7.21,4.4,11.52,12.07,11.52,20.5v2c0,.34-.01,.68-.03,1.02l-.02,.39,.25,.3c2.44,2.89,3.79,6.55,3.79,10.3,0,8.82-7.18,16-16,16H127c-8.82,0-16-7.18-16-16s7.18-16,16-16h5v-2c0-13.23,10.77-24,24-24,1.08,0,2.2,.08,3.32,.23l.94,.13,.18-.93c2.17-11.26,12.08-19.43,23.56-19.43m0-1c-12.18,0-22.32,8.71-24.54,20.24-1.13-.16-2.28-.24-3.46-.24-13.81,0-25,11.19-25,25v1h-4c-9.35,0-17,7.65-17,17s7.65,17,17,17h81c9.35,0,17-7.65,17-17,0-4.16-1.52-7.98-4.03-10.94,.01-.35,.03-.7,.03-1.06v-2c0-9.05-4.8-16.97-12-21.36v-2.64c0-13.81-11.19-25-25-25h0Z"/>
  </g>
</svg>